<svg xmlns="http://www.w3.org/2000/svg" viewBox="0 0 100 100" width="100" height="100">
  <defs>
    <linearGradient id="grad-profile" x1="0%" y1="0%" x2="100%" y2="100%">
      <stop offset="0%" stop-color="#e5c158" />
      <stop offset="100%" stop-color="#a28ee6" />
    </linearGradient>
  </defs>
  <circle cx="50" cy="50" r="46" fill="none" stroke="url(#grad-profile)" stroke-width="4" />
  <circle cx="50" cy="38" r="16" fill="url(#grad-profile)" />
  <path d="M22,76 C22,58 34,58 50,58 C66,58 78,58 78,76 C78,82 72,82 50,82 C28,82 22,82 22,76 Z" fill="url(#grad-profile)" />
  <!-- Cute star sparkles -->
  <path d="M74,22 L76,25 L79,26 L76,27 L74,30 L72,27 L69,26 L72,25 Z" fill="#e5c158" />
  <path d="M26,18 L27.5,20.5 L30,21 L27.5,21.5 L26,24 L24.5,21.5 L22,21 L24.5,20.5 Z" fill="#a28ee6" />
</svg>
